<mxfile host="app.diagrams.net" modified="2022-05-06T19:20:44.641Z" agent="5.0 (Macintosh; Intel Mac OS X 10_15_7) AppleWebKit/537.36 (KHTML, like Gecko) Chrome/101.0.4951.54 Safari/537.36" etag="zBlLDu200Oosv2kgim3n" version="18.0.1" type="github">
  <diagram id="KoOdg2N1i1upjq5eEogs" name="Page-1">
    <mxGraphModel dx="786" dy="1161" grid="1" gridSize="10" guides="1" tooltips="1" connect="1" arrows="1" fold="1" page="1" pageScale="1" pageWidth="850" pageHeight="1100" math="0" shadow="0">
      <root>
        <mxCell id="0" />
        <mxCell id="1" parent="0" />
        <mxCell id="j9Hijhqab_qyBpmQSOof-2" value="Bestie" style="rounded=0;whiteSpace=wrap;html=1;" parent="1" vertex="1">
          <mxGeometry x="240" y="420" width="120" height="60" as="geometry" />
        </mxCell>
        <mxCell id="j9Hijhqab_qyBpmQSOof-3" value="Bestie" style="rounded=0;whiteSpace=wrap;html=1;" parent="1" vertex="1">
          <mxGeometry x="400" y="420" width="120" height="60" as="geometry" />
        </mxCell>
        <mxCell id="j9Hijhqab_qyBpmQSOof-4" value="Bestie" style="rounded=0;whiteSpace=wrap;html=1;" parent="1" vertex="1">
          <mxGeometry x="560" y="420" width="120" height="60" as="geometry" />
        </mxCell>
        <mxCell id="j9Hijhqab_qyBpmQSOof-5" value="Loadbalancer" style="rounded=0;whiteSpace=wrap;html=1;" parent="1" vertex="1">
          <mxGeometry x="400" y="300" width="120" height="60" as="geometry" />
        </mxCell>
        <mxCell id="j9Hijhqab_qyBpmQSOof-20" value="" style="edgeStyle=orthogonalEdgeStyle;rounded=0;orthogonalLoop=1;jettySize=auto;html=1;" parent="1" source="j9Hijhqab_qyBpmQSOof-9" target="j9Hijhqab_qyBpmQSOof-5" edge="1">
          <mxGeometry relative="1" as="geometry" />
        </mxCell>
        <mxCell id="j9Hijhqab_qyBpmQSOof-9" value="User" style="shape=umlActor;verticalLabelPosition=bottom;verticalAlign=top;html=1;outlineConnect=0;" parent="1" vertex="1">
          <mxGeometry x="100" y="300" width="30" height="60" as="geometry" />
        </mxCell>
        <mxCell id="j9Hijhqab_qyBpmQSOof-11" value="" style="endArrow=classic;startArrow=classic;html=1;rounded=0;" parent="1" source="j9Hijhqab_qyBpmQSOof-2" target="j9Hijhqab_qyBpmQSOof-1" edge="1">
          <mxGeometry width="50" height="50" relative="1" as="geometry">
            <mxPoint x="400" y="620" as="sourcePoint" />
            <mxPoint x="450" y="570" as="targetPoint" />
          </mxGeometry>
        </mxCell>
        <mxCell id="j9Hijhqab_qyBpmQSOof-12" value="" style="endArrow=classic;startArrow=classic;html=1;rounded=0;" parent="1" source="j9Hijhqab_qyBpmQSOof-3" target="j9Hijhqab_qyBpmQSOof-1" edge="1">
          <mxGeometry width="50" height="50" relative="1" as="geometry">
            <mxPoint x="400" y="620" as="sourcePoint" />
            <mxPoint x="450" y="570" as="targetPoint" />
          </mxGeometry>
        </mxCell>
        <mxCell id="j9Hijhqab_qyBpmQSOof-13" value="" style="endArrow=classic;startArrow=classic;html=1;rounded=0;" parent="1" source="j9Hijhqab_qyBpmQSOof-4" target="j9Hijhqab_qyBpmQSOof-1" edge="1">
          <mxGeometry width="50" height="50" relative="1" as="geometry">
            <mxPoint x="400" y="620" as="sourcePoint" />
            <mxPoint x="450" y="570" as="targetPoint" />
          </mxGeometry>
        </mxCell>
        <mxCell id="j9Hijhqab_qyBpmQSOof-16" value="" style="endArrow=classic;html=1;rounded=0;" parent="1" source="j9Hijhqab_qyBpmQSOof-5" target="j9Hijhqab_qyBpmQSOof-2" edge="1">
          <mxGeometry width="50" height="50" relative="1" as="geometry">
            <mxPoint x="400" y="620" as="sourcePoint" />
            <mxPoint x="450" y="570" as="targetPoint" />
          </mxGeometry>
        </mxCell>
        <mxCell id="j9Hijhqab_qyBpmQSOof-17" value="" style="endArrow=classic;html=1;rounded=0;" parent="1" source="j9Hijhqab_qyBpmQSOof-5" target="j9Hijhqab_qyBpmQSOof-3" edge="1">
          <mxGeometry width="50" height="50" relative="1" as="geometry">
            <mxPoint x="400" y="620" as="sourcePoint" />
            <mxPoint x="450" y="570" as="targetPoint" />
          </mxGeometry>
        </mxCell>
        <mxCell id="j9Hijhqab_qyBpmQSOof-18" value="" style="endArrow=classic;html=1;rounded=0;" parent="1" source="j9Hijhqab_qyBpmQSOof-5" target="j9Hijhqab_qyBpmQSOof-4" edge="1">
          <mxGeometry width="50" height="50" relative="1" as="geometry">
            <mxPoint x="400" y="620" as="sourcePoint" />
            <mxPoint x="450" y="570" as="targetPoint" />
          </mxGeometry>
        </mxCell>
        <mxCell id="j9Hijhqab_qyBpmQSOof-21" value="" style="swimlane;startSize=0;" parent="1" vertex="1">
          <mxGeometry x="190" y="230" width="510" height="430" as="geometry">
            <mxRectangle x="220" y="280" width="50" height="40" as="alternateBounds" />
          </mxGeometry>
        </mxCell>
        <mxCell id="j9Hijhqab_qyBpmQSOof-1" value="Postgres" style="shape=cylinder3;whiteSpace=wrap;html=1;boundedLbl=1;backgroundOutline=1;size=15;" parent="j9Hijhqab_qyBpmQSOof-21" vertex="1">
          <mxGeometry x="225" y="300" width="90" height="110" as="geometry" />
        </mxCell>
        <mxCell id="j9Hijhqab_qyBpmQSOof-22" value="Traditional Datacenter&lt;br&gt;(each box is a machine)" style="text;html=1;align=center;verticalAlign=middle;resizable=0;points=[];autosize=1;strokeColor=none;fillColor=none;" parent="j9Hijhqab_qyBpmQSOof-21" vertex="1">
          <mxGeometry x="360" y="5" width="140" height="30" as="geometry" />
        </mxCell>
      </root>
    </mxGraphModel>
  </diagram>
</mxfile>
